<svg id="svg" version="1.1" xmlns="http://www.w3.org/2000/svg" xmlns:xlink="http://www.w3.org/1999/xlink" width="400" height="400" viewBox="0, 0, 400,400"><g id="svgg"><path id="path0" d="M301.896 86.216 C 301.293 86.775,300.800 87.460,300.800 87.738 C 300.800 88.335,298.345 90.800,297.751 90.800 C 297.185 90.800,295.851 92.370,295.285 93.700 C 295.028 94.305,294.543 94.800,294.209 94.800 C 293.874 94.800,293.600 94.980,293.600 95.200 C 293.600 95.420,293.361 95.600,293.070 95.600 C 292.466 95.600,290.800 97.249,290.800 97.847 C 290.800 98.364,288.284 100.800,287.751 100.800 C 287.200 100.800,285.600 102.530,285.600 103.126 C 285.600 103.387,285.420 103.600,285.200 103.600 C 284.980 103.600,284.800 103.870,284.800 104.200 C 284.800 104.530,284.530 104.800,284.200 104.800 C 283.870 104.800,283.600 104.980,283.600 105.200 C 283.600 105.420,283.361 105.600,283.070 105.600 C 282.466 105.600,280.800 107.249,280.800 107.847 C 280.800 108.385,278.273 110.800,277.710 110.800 C 277.141 110.800,274.800 113.608,274.800 114.291 C 274.800 114.571,274.530 114.800,274.200 114.800 C 273.870 114.800,273.600 114.980,273.600 115.200 C 273.600 115.420,273.361 115.600,273.070 115.600 C 272.441 115.600,270.800 117.260,270.800 117.895 C 270.800 118.502,268.457 120.800,267.839 120.800 C 267.238 120.800,265.962 122.201,265.238 123.656 C 264.949 124.237,264.237 124.949,263.656 125.238 C 262.201 125.962,260.800 127.238,260.800 127.839 C 260.800 128.488,258.488 130.800,257.839 130.800 C 257.238 130.800,255.962 132.201,255.238 133.656 C 254.949 134.237,254.237 134.949,253.656 135.238 C 252.201 135.962,250.800 137.238,250.800 137.839 C 250.800 138.114,250.246 138.892,249.569 139.569 C 248.892 140.246,248.114 140.800,247.839 140.800 C 247.238 140.800,245.962 142.201,245.238 143.656 C 244.949 144.237,244.237 144.949,243.656 145.238 C 242.201 145.962,240.800 147.238,240.800 147.839 C 240.800 148.488,238.488 150.800,237.839 150.800 C 237.238 150.800,235.962 152.201,235.238 153.656 C 234.949 154.237,234.237 154.949,233.656 155.238 C 232.201 155.962,230.800 157.238,230.800 157.839 C 230.800 158.114,230.246 158.892,229.569 159.569 C 228.892 160.246,228.114 160.800,227.839 160.800 C 227.238 160.800,225.962 162.201,225.238 163.656 C 224.949 164.237,224.237 164.949,223.656 165.238 C 222.227 165.949,220.800 167.235,220.800 167.811 C 220.800 168.522,218.966 170.357,217.820 170.792 C 217.264 171.004,216.312 171.900,215.704 172.783 C 215.033 173.760,214.131 174.519,213.403 174.719 C 212.676 174.920,211.575 175.844,210.603 177.071 C 209.721 178.182,208.547 179.371,207.994 179.713 C 206.558 180.600,204.800 182.289,204.800 182.781 C 204.800 183.324,203.324 184.800,202.781 184.800 C 202.270 184.800,200.560 186.605,199.713 188.040 C 199.371 188.618,198.591 189.387,197.979 189.749 C 197.367 190.111,196.395 190.990,195.819 191.703 C 194.013 193.939,193.384 194.587,192.580 195.038 C 191.275 195.769,190.228 197.690,189.651 200.412 C 189.301 202.061,188.670 203.554,187.912 204.525 C 186.617 206.185,185.200 209.776,185.200 211.397 C 185.200 212.478,183.488 216.063,182.633 216.773 C 181.775 217.485,178.107 227.840,178.554 228.287 C 179.550 229.283,180.802 227.420,180.822 224.910 C 180.854 221.035,181.860 218.711,183.710 218.239 C 185.220 217.853,185.600 217.033,185.600 214.156 C 185.600 210.594,187.192 206.400,188.545 206.400 C 189.900 206.400,190.258 205.780,190.748 202.591 C 191.491 197.746,192.037 196.620,193.707 196.478 C 195.354 196.337,196.032 195.676,196.613 193.644 C 196.968 192.402,197.192 192.200,198.213 192.200 L 199.400 192.200 199.517 195.098 L 199.635 197.996 198.117 198.698 C 196.322 199.529,195.232 200.692,195.212 201.800 C 195.204 202.240,194.838 203.189,194.399 203.910 C 193.959 204.630,193.600 205.482,193.600 205.802 C 193.600 206.123,193.145 206.499,192.589 206.638 C 191.289 206.965,190.878 207.777,190.553 210.658 C 190.131 214.411,188.538 217.983,186.999 218.626 C 185.768 219.141,185.711 219.268,185.462 222.080 C 185.319 223.686,184.942 225.740,184.622 226.644 C 183.309 230.368,183.353 232.307,184.782 233.704 C 185.492 234.398,186.335 235.621,186.655 236.422 C 187.069 237.457,187.723 238.121,188.919 238.721 C 190.596 239.563,191.608 240.695,192.016 242.189 C 192.140 242.645,192.778 243.136,193.522 243.349 C 194.231 243.553,195.469 244.396,196.272 245.224 C 197.958 246.961,200.165 247.053,204.315 245.561 C 205.478 245.142,207.209 244.800,208.161 244.800 C 209.919 244.800,211.995 243.650,212.005 242.671 C 212.013 241.839,215.261 240.614,220.111 239.614 C 221.829 239.260,222.592 238.879,223.082 238.131 C 223.761 237.095,227.068 235.366,229.178 234.944 C 230.496 234.681,231.365 233.602,231.909 231.552 C 232.293 230.107,232.886 229.989,236.656 230.612 C 238.799 230.966,238.885 233.600,236.753 233.600 C 235.365 233.600,234.363 234.642,233.768 236.703 C 233.302 238.319,233.279 238.331,227.650 239.880 C 225.665 240.426,225.002 240.805,224.655 241.591 C 224.410 242.146,224.027 242.785,223.805 243.012 C 223.224 243.604,217.722 244.810,215.600 244.811 C 213.417 244.812,212.946 245.079,212.584 246.520 C 212.181 248.125,209.859 249.177,206.088 249.462 C 202.789 249.712,202.000 250.057,202.000 251.249 C 202.000 252.056,202.789 252.251,203.437 251.603 C 203.778 251.262,207.455 250.128,210.800 249.331 C 211.350 249.200,212.550 248.487,213.467 247.746 C 214.384 247.006,215.302 246.400,215.506 246.400 C 215.710 246.400,216.446 246.116,217.142 245.769 C 217.837 245.422,219.498 244.984,220.832 244.795 C 222.771 244.521,223.689 244.120,225.405 242.796 C 227.008 241.560,228.218 241.000,230.180 240.590 C 233.244 239.949,233.978 239.502,235.565 237.312 C 236.209 236.423,237.279 235.455,237.943 235.161 C 238.607 234.867,239.627 233.872,240.210 232.949 C 240.794 232.026,242.065 230.769,243.036 230.156 C 244.006 229.542,244.800 228.806,244.800 228.520 C 244.800 227.844,247.844 224.800,248.520 224.800 C 248.806 224.800,249.542 224.006,250.156 223.036 C 250.769 222.065,252.065 220.769,253.036 220.156 C 254.006 219.542,254.800 218.893,254.800 218.712 C 254.800 217.990,256.938 215.210,257.673 214.977 C 258.103 214.840,259.078 213.755,259.839 212.566 C 260.600 211.377,261.709 210.088,262.304 209.702 C 263.830 208.712,264.800 207.690,264.800 207.070 C 264.800 206.426,266.466 204.800,267.126 204.800 C 267.750 204.800,268.907 203.621,269.845 202.028 C 270.260 201.322,271.223 200.359,271.985 199.887 C 273.752 198.793,274.800 197.744,274.800 197.070 C 274.800 196.388,276.477 194.806,277.226 194.782 C 277.542 194.771,278.160 194.287,278.600 193.706 C 279.588 192.400,282.334 189.673,283.742 188.600 C 284.319 188.160,284.794 187.567,284.796 187.282 C 284.801 186.610,286.610 184.801,287.282 184.796 C 287.567 184.794,288.160 184.319,288.600 183.742 C 289.632 182.387,292.397 179.625,293.745 178.600 C 294.324 178.160,294.894 177.506,295.011 177.148 C 295.334 176.157,296.624 174.801,297.247 174.796 C 297.551 174.794,298.160 174.319,298.600 173.742 C 299.629 172.393,302.393 169.629,303.742 168.600 C 304.319 168.160,304.794 167.567,304.796 167.282 C 304.801 166.610,306.610 164.801,307.282 164.796 C 307.567 164.794,308.160 164.319,308.600 163.742 C 309.632 162.387,312.397 159.625,313.745 158.600 C 314.324 158.160,314.894 157.506,315.011 157.148 C 315.334 156.157,316.624 154.801,317.247 154.796 C 317.551 154.794,318.160 154.332,318.600 153.770 C 320.804 150.955,322.104 149.661,322.938 149.451 C 323.444 149.324,324.620 148.316,325.553 147.210 C 327.333 145.099,330.563 144.323,331.920 145.680 C 332.647 146.407,332.541 144.080,331.781 142.623 C 330.944 141.018,330.927 138.215,331.750 137.393 C 332.107 137.035,332.400 136.596,332.400 136.416 C 332.400 136.236,333.010 135.975,333.756 135.835 C 335.074 135.587,335.344 135.238,336.130 132.751 C 336.243 132.394,337.159 131.704,338.166 131.217 C 340.653 130.012,340.567 130.183,341.032 125.519 C 341.331 122.525,341.739 123.220,337.168 118.949 C 336.195 118.040,334.950 116.741,334.400 116.061 C 333.850 115.380,333.206 114.819,332.970 114.812 C 332.461 114.798,330.800 113.103,330.800 112.598 C 330.800 112.076,327.513 109.200,326.916 109.200 C 326.632 109.200,326.400 109.012,326.400 108.783 C 326.400 108.554,326.223 108.149,326.006 107.883 C 325.789 107.617,325.143 106.815,324.570 106.100 C 323.998 105.385,323.306 104.800,323.034 104.800 C 322.506 104.800,320.800 103.153,320.800 102.643 C 320.800 102.250,317.507 99.225,317.064 99.211 C 316.670 99.198,315.233 97.545,315.213 97.082 C 315.195 96.643,313.317 94.800,312.888 94.800 C 312.461 94.800,310.800 93.072,310.800 92.627 C 310.800 91.800,307.376 89.098,305.601 88.525 C 303.902 87.976,303.723 87.819,304.224 87.319 C 305.000 86.543,304.949 86.108,304.026 85.614 C 303.028 85.080,303.163 85.042,301.896 86.216 M310.799 94.500 C 310.800 94.665,311.070 94.800,311.400 94.800 C 311.730 94.800,312.001 94.935,312.003 95.100 C 312.004 95.265,312.499 95.682,313.103 96.028 C 313.706 96.373,314.470 97.181,314.800 97.824 C 315.531 99.250,317.123 100.800,317.855 100.800 C 318.152 100.800,318.980 101.697,319.697 102.793 C 320.414 103.889,321.203 104.789,321.452 104.793 C 322.092 104.803,325.200 107.893,325.200 108.520 C 325.200 108.806,326.010 109.552,327.000 110.178 C 327.990 110.804,329.295 112.100,329.900 113.057 C 330.505 114.015,331.203 114.799,331.452 114.799 C 332.066 114.800,335.195 117.875,335.218 118.500 C 335.236 118.978,335.610 119.331,338.100 121.222 C 339.537 122.314,338.912 124.800,337.200 124.800 C 336.672 124.800,335.234 126.386,335.213 126.990 C 335.199 127.403,331.978 130.399,331.548 130.399 C 331.409 130.400,330.549 131.390,329.635 132.600 C 328.721 133.811,327.656 134.800,327.267 134.800 C 326.862 134.800,326.065 135.583,325.402 136.631 C 324.766 137.638,323.504 138.994,322.597 139.645 C 321.691 140.296,320.283 141.722,319.467 142.814 C 318.652 143.906,317.775 144.800,317.518 144.800 C 316.889 144.800,315.200 146.420,315.200 147.023 C 315.200 147.289,314.509 148.113,313.664 148.853 C 311.386 150.850,310.983 151.231,309.062 153.200 C 306.921 155.394,305.553 156.764,303.200 159.069 C 300.909 161.313,301.130 161.091,299.100 163.200 C 298.148 164.190,296.889 165.360,296.303 165.800 C 295.716 166.240,295.222 166.870,295.203 167.200 C 295.185 167.530,294.342 168.430,293.331 169.200 C 292.319 169.970,291.201 170.954,290.846 171.386 C 290.491 171.818,289.544 172.808,288.742 173.586 C 287.940 174.364,286.770 175.519,286.142 176.153 C 285.514 176.787,284.190 178.099,283.200 179.069 C 281.006 181.218,281.218 181.006,279.069 183.200 C 278.099 184.190,276.851 185.450,276.294 186.000 C 275.738 186.550,274.583 187.720,273.727 188.600 C 272.871 189.480,271.818 190.496,271.386 190.858 C 270.954 191.220,270.005 192.255,269.277 193.158 C 268.550 194.061,267.729 194.800,267.452 194.800 C 266.861 194.800,265.020 196.707,264.683 197.669 C 264.554 198.037,263.673 198.925,262.725 199.643 C 261.776 200.361,260.322 201.815,259.494 202.874 C 258.666 203.933,257.754 204.800,257.469 204.800 C 256.860 204.800,255.024 206.697,254.678 207.683 C 254.546 208.059,253.740 208.807,252.886 209.346 C 251.487 210.229,250.627 211.115,248.483 213.882 C 248.107 214.366,247.583 214.771,247.318 214.782 C 246.693 214.805,244.805 216.693,244.782 217.318 C 244.771 217.583,244.287 218.160,243.706 218.600 C 242.376 219.606,239.652 222.321,238.600 223.688 C 237.698 224.862,234.056 224.876,231.269 223.717 C 228.881 222.724,220.794 213.909,220.803 212.308 C 220.806 211.678,218.001 209.200,217.285 209.200 C 216.301 209.200,214.202 207.888,212.874 206.442 C 212.145 205.649,210.572 203.974,209.379 202.721 C 205.220 198.352,204.131 193.574,206.828 191.530 C 208.389 190.348,210.343 188.396,211.504 186.860 C 212.002 186.202,212.947 185.425,213.604 185.134 C 214.262 184.843,214.800 184.386,214.800 184.119 C 214.800 183.651,216.289 182.060,219.342 179.266 C 220.144 178.533,220.800 177.718,220.800 177.455 C 220.800 176.873,222.107 175.716,223.461 175.099 C 224.011 174.849,224.725 174.131,225.050 173.503 C 225.809 172.035,226.870 170.800,227.372 170.800 C 227.911 170.800,230.800 167.941,230.800 167.408 C 230.800 166.868,232.150 165.697,233.461 165.099 C 234.011 164.849,234.725 164.131,235.050 163.503 C 235.809 162.035,236.870 160.800,237.372 160.800 C 237.911 160.800,240.800 157.941,240.800 157.408 C 240.800 156.868,242.150 155.697,243.461 155.099 C 244.011 154.849,244.725 154.131,245.050 153.503 C 245.809 152.035,246.870 150.800,247.372 150.800 C 247.911 150.800,250.800 147.941,250.800 147.408 C 250.800 146.868,252.150 145.697,253.461 145.099 C 254.011 144.849,254.725 144.131,255.050 143.503 C 255.809 142.035,256.870 140.800,257.372 140.800 C 257.930 140.800,260.800 137.932,260.800 137.375 C 260.800 137.120,261.288 136.572,261.884 136.156 C 263.272 135.189,265.189 133.272,266.156 131.884 C 266.572 131.288,267.104 130.800,267.339 130.800 C 267.921 130.800,270.800 127.951,270.800 127.375 C 270.800 127.120,271.288 126.572,271.884 126.156 C 273.272 125.189,275.189 123.272,276.156 121.884 C 276.572 121.288,277.104 120.800,277.339 120.800 C 277.907 120.800,280.800 117.958,280.800 117.400 C 280.800 117.159,281.357 116.521,282.038 115.981 C 283.605 114.739,284.739 113.605,285.981 112.038 C 286.521 111.357,287.143 110.800,287.364 110.800 C 287.928 110.800,290.800 107.937,290.800 107.375 C 290.800 107.120,291.288 106.572,291.884 106.156 C 293.272 105.189,295.189 103.272,296.156 101.884 C 296.572 101.288,297.104 100.800,297.339 100.800 C 297.902 100.800,300.800 97.960,300.800 97.408 C 300.800 96.864,302.006 95.825,303.581 95.010 C 304.252 94.663,304.800 94.210,304.800 94.003 C 304.800 93.796,305.465 92.962,306.278 92.149 L 307.755 90.672 309.276 92.436 C 310.113 93.406,310.798 94.335,310.799 94.500 M213.498 178.631 C 212.562 179.708,212.000 179.562,212.000 178.243 C 212.000 177.001,212.319 176.780,213.398 177.272 L 214.316 177.690 213.498 178.631 M209.433 182.306 C 209.711 182.495,209.462 182.986,208.736 183.681 C 207.629 184.740,207.599 184.746,207.173 183.949 C 206.364 182.439,207.940 181.293,209.433 182.306 M204.030 187.216 C 204.777 187.616,204.766 187.669,203.753 188.608 C 202.569 189.706,202.000 189.588,202.000 188.243 C 202.000 186.775,202.619 186.461,204.030 187.216 M253.126 218.056 C 252.837 218.241,252.360 218.303,252.067 218.196 C 251.774 218.088,251.262 218.000,250.928 218.000 C 250.492 218.000,250.642 217.624,251.461 216.665 L 252.600 215.330 253.126 216.525 C 253.560 217.513,253.560 217.779,253.126 218.056 M248.127 221.603 C 248.503 223.179,247.975 223.689,246.500 223.175 L 245.254 222.741 246.527 221.603 C 247.227 220.978,247.819 220.496,247.843 220.533 C 247.868 220.570,247.995 221.051,248.127 221.603 M223.000 222.733 C 223.000 223.457,222.217 223.325,222.062 222.575 C 221.975 222.158,222.125 221.975,222.462 222.087 C 222.758 222.186,223.000 222.477,223.000 222.733 M243.140 228.043 C 242.663 228.342,241.296 228.168,240.832 227.749 C 240.739 227.665,241.091 227.142,241.614 226.585 L 242.564 225.574 243.122 226.639 C 243.589 227.530,243.592 227.759,243.140 228.043 " stroke="none" fill="#dfbf76" fill-rule="evenodd"></path><path id="path1" d="M322.900 32.676 C 323.285 32.776,323.915 32.776,324.300 32.676 C 324.685 32.575,324.370 32.493,323.600 32.493 C 322.830 32.493,322.515 32.575,322.900 32.676 M88.800 35.217 C 85.519 35.610,84.110 36.151,82.600 37.600 C 81.940 38.233,80.950 38.954,80.400 39.203 C 77.323 40.595,75.200 42.382,75.200 43.579 C 75.200 44.118,73.890 46.033,72.133 48.064 C 71.183 49.163,70.783 50.111,70.533 51.864 C 70.105 54.868,70.094 354.542,70.522 358.011 C 70.812 360.360,71.064 360.895,73.022 363.338 C 74.220 364.832,75.206 366.357,75.213 366.727 C 75.235 367.834,76.491 369.011,79.181 370.445 C 80.579 371.190,82.214 372.288,82.815 372.885 C 83.416 373.481,84.153 374.021,84.454 374.085 C 84.754 374.148,85.128 374.380,85.285 374.600 C 85.629 375.081,307.007 375.169,309.264 374.689 C 310.069 374.517,311.245 373.848,311.878 373.200 C 312.512 372.552,314.354 371.323,315.972 370.468 C 318.768 368.991,318.991 368.767,320.473 365.957 C 321.331 364.331,322.495 362.569,323.061 362.043 C 325.342 359.918,325.200 366.683,325.200 260.275 C 325.200 165.069,325.223 162.059,325.956 159.928 C 327.403 155.723,327.786 155.236,329.372 155.594 C 330.303 155.804,330.828 155.757,330.957 155.454 C 331.079 155.167,331.380 155.286,331.775 155.776 C 332.350 156.491,332.400 156.185,332.400 151.919 C 332.400 146.507,332.700 146.837,328.058 147.150 C 327.648 147.178,326.816 147.991,326.199 148.966 C 325.354 150.304,324.761 150.793,323.759 150.981 C 322.452 151.226,320.800 152.814,320.800 153.825 C 320.800 154.110,319.899 154.927,318.798 155.640 C 317.646 156.387,316.373 157.659,315.801 158.634 C 315.193 159.671,314.222 160.616,313.303 161.065 C 312.401 161.506,311.525 162.350,311.113 163.176 C 310.735 163.933,309.655 165.066,308.713 165.694 C 307.771 166.321,306.448 167.644,305.772 168.632 C 305.097 169.621,303.927 170.738,303.172 171.115 C 302.407 171.497,301.497 172.407,301.115 173.172 C 300.738 173.927,299.611 175.098,298.609 175.774 C 297.608 176.450,296.356 177.723,295.828 178.602 C 295.292 179.494,294.190 180.553,293.334 181.000 C 292.442 181.465,291.513 182.375,291.115 183.172 C 290.738 183.927,289.621 185.097,288.632 185.772 C 287.644 186.448,286.321 187.771,285.694 188.713 C 285.066 189.655,283.933 190.735,283.176 191.113 C 282.406 191.497,281.497 192.406,281.113 193.176 C 280.498 194.408,277.612 196.800,276.740 196.800 C 276.553 196.800,276.400 197.035,276.400 197.322 C 276.400 198.240,274.507 200.448,273.131 201.135 C 272.399 201.501,271.492 202.418,271.115 203.172 C 270.738 203.927,269.619 205.097,268.628 205.772 C 267.637 206.448,266.264 207.855,265.576 208.900 C 264.888 209.945,264.096 210.800,263.816 210.800 C 262.932 210.800,261.300 212.346,261.024 213.446 C 260.738 214.588,259.539 215.802,258.108 216.401 C 257.618 216.606,256.826 217.605,256.348 218.621 C 255.693 220.015,255.065 220.670,253.793 221.288 C 252.583 221.876,251.876 222.583,251.288 223.793 C 250.685 225.035,250.011 225.695,248.730 226.297 C 247.413 226.916,246.814 227.518,246.256 228.781 C 245.702 230.037,245.086 230.660,243.762 231.303 C 242.795 231.773,241.897 232.494,241.767 232.905 C 241.388 234.097,239.183 236.400,238.421 236.400 C 237.689 236.400,236.400 237.584,236.400 238.257 C 236.400 239.139,234.054 240.763,231.800 241.441 C 230.467 241.842,228.757 242.728,227.952 243.433 C 226.375 244.817,222.611 246.399,220.885 246.402 C 218.995 246.406,216.862 247.195,216.091 248.176 C 215.167 249.350,212.844 250.797,211.879 250.799 C 209.527 250.803,205.523 252.139,204.354 253.308 C 202.868 254.794,199.972 256.400,198.779 256.400 C 197.577 256.400,195.200 257.590,195.200 258.191 C 195.200 259.689,190.886 261.273,184.339 262.180 C 182.808 262.392,182.434 262.609,182.235 263.404 C 181.850 264.935,179.088 266.264,175.679 266.558 C 172.840 266.802,170.823 267.621,170.778 268.546 C 170.686 270.429,163.978 272.065,161.318 270.853 C 157.530 269.127,158.366 261.370,162.599 258.969 C 163.203 258.627,163.415 257.883,163.634 255.338 C 163.989 251.210,165.611 248.000,167.343 248.000 C 167.725 248.000,167.982 247.427,168.106 246.300 C 168.438 243.289,169.576 238.394,170.096 237.749 C 170.373 237.404,171.190 236.477,171.910 235.689 C 172.631 234.901,173.322 233.793,173.446 233.228 C 174.188 229.847,176.044 226.376,177.386 225.861 C 177.724 225.731,178.000 225.295,178.000 224.893 C 178.000 224.490,178.175 223.985,178.389 223.771 C 178.602 223.558,178.944 222.205,179.148 220.766 C 179.572 217.774,180.461 215.895,182.309 214.089 C 183.279 213.141,183.600 212.478,183.600 211.422 C 183.600 209.119,185.204 204.733,186.607 203.200 C 187.762 201.937,189.200 198.543,189.200 197.079 C 189.200 196.151,190.673 194.551,192.189 193.832 C 192.965 193.464,193.600 192.956,193.600 192.703 C 193.600 191.769,195.691 189.264,196.678 189.016 C 197.979 188.690,198.692 187.969,199.025 186.644 C 199.300 185.547,200.747 184.304,202.548 183.620 C 203.126 183.400,203.600 182.987,203.600 182.703 C 203.600 181.693,205.580 179.292,206.630 179.028 C 207.933 178.701,208.405 178.222,209.268 176.353 C 209.767 175.274,210.398 174.715,211.749 174.156 C 212.984 173.645,213.815 172.959,214.357 172.003 C 215.256 170.416,216.551 169.200,217.343 169.200 C 217.977 169.200,219.200 167.931,219.200 167.273 C 219.200 166.538,220.474 165.223,222.053 164.329 C 222.852 163.876,223.876 162.852,224.329 162.053 C 225.253 160.421,226.543 159.200,227.343 159.200 C 227.977 159.200,229.200 157.931,229.200 157.273 C 229.200 156.538,230.474 155.223,232.053 154.329 C 232.852 153.876,233.876 152.852,234.329 152.053 C 235.253 150.421,236.543 149.200,237.343 149.200 C 237.977 149.200,239.200 147.931,239.200 147.273 C 239.200 146.538,240.474 145.223,242.053 144.329 C 242.852 143.876,243.876 142.852,244.329 142.053 C 245.253 140.421,246.543 139.200,247.343 139.200 C 247.977 139.200,249.200 137.931,249.200 137.273 C 249.200 136.538,250.474 135.223,252.053 134.329 C 252.852 133.876,253.876 132.852,254.329 132.053 C 255.253 130.421,256.543 129.200,257.343 129.200 C 257.977 129.200,259.200 127.931,259.200 127.273 C 259.200 126.538,260.474 125.223,262.053 124.329 C 262.852 123.876,263.876 122.852,264.329 122.053 C 265.253 120.421,266.543 119.200,267.343 119.200 C 268.035 119.200,269.078 118.014,269.261 117.019 C 269.339 116.589,270.213 115.643,271.202 114.916 C 273.402 113.299,273.299 113.402,274.916 111.202 C 275.643 110.213,276.561 109.341,276.955 109.266 C 277.877 109.088,279.088 107.877,279.266 106.955 C 279.341 106.561,280.213 105.643,281.202 104.916 C 283.402 103.299,283.299 103.402,284.916 101.202 C 285.643 100.213,286.561 99.341,286.955 99.266 C 287.877 99.088,289.088 97.877,289.266 96.955 C 289.341 96.561,290.213 95.643,291.202 94.916 C 293.402 93.299,293.299 93.402,294.916 91.202 C 295.643 90.213,296.561 89.341,296.955 89.266 C 297.877 89.088,299.088 87.877,299.266 86.955 C 299.341 86.561,300.213 85.643,301.202 84.916 C 303.402 83.299,303.299 83.402,304.916 81.202 C 305.643 80.213,306.561 79.341,306.955 79.266 C 307.853 79.093,309.200 77.775,309.200 77.070 C 309.200 76.434,310.520 75.171,312.294 74.110 C 313.006 73.684,314.142 72.571,314.819 71.637 C 315.496 70.703,316.629 69.696,317.337 69.400 C 318.116 69.075,319.134 68.076,319.913 66.874 C 320.698 65.663,321.593 64.788,322.204 64.635 C 323.095 64.411,325.200 61.103,325.200 59.925 C 325.200 59.372,326.767 58.000,327.400 58.000 C 327.842 58.000,328.000 57.539,328.000 56.254 C 328.000 55.113,328.278 54.155,328.801 53.489 C 329.604 52.468,329.522 51.200,328.653 51.200 C 328.399 51.200,327.744 50.789,327.196 50.286 C 326.221 49.392,323.623 48.000,322.929 48.000 C 322.736 48.000,321.772 46.518,320.787 44.707 C 319.111 41.626,318.831 41.328,316.420 40.058 C 315.003 39.311,313.593 38.450,313.287 38.144 C 310.641 35.498,307.341 34.800,297.477 34.800 L 292.521 34.800 291.889 36.300 C 291.416 37.420,291.206 39.726,291.058 45.400 C 290.835 54.020,290.823 54.073,288.927 55.245 C 287.295 56.254,283.772 55.528,281.712 53.759 L 280.660 52.855 280.478 45.220 L 280.295 37.586 279.019 36.193 L 277.743 34.800 255.132 34.800 L 232.521 34.800 231.889 36.300 C 231.416 37.420,231.206 39.726,231.058 45.400 C 230.835 54.020,230.823 54.073,228.927 55.245 C 227.295 56.254,223.772 55.528,221.712 53.759 L 220.660 52.855 220.478 45.220 L 220.295 37.586 219.019 36.193 L 217.743 34.800 195.132 34.800 L 172.521 34.800 171.889 36.300 C 171.416 37.420,171.206 39.726,171.058 45.400 C 170.835 54.020,170.823 54.073,168.927 55.245 C 167.295 56.254,163.772 55.528,161.712 53.759 L 160.660 52.855 160.478 45.220 L 160.295 37.586 159.019 36.193 L 157.743 34.800 135.132 34.800 L 112.521 34.800 111.889 36.300 C 111.416 37.420,111.206 39.726,111.058 45.400 C 110.835 54.020,110.823 54.073,108.927 55.245 C 107.295 56.254,103.772 55.528,101.712 53.759 L 100.660 52.855 100.478 45.220 L 100.295 37.586 99.019 36.193 C 97.614 34.659,95.301 34.438,88.800 35.217 M331.259 68.366 C 330.359 69.828,329.489 70.659,328.201 71.285 C 327.005 71.866,326.400 72.415,326.400 72.920 C 326.400 73.896,323.909 76.400,322.938 76.400 C 322.439 76.400,321.903 77.037,321.304 78.343 C 320.596 79.886,320.021 80.487,318.506 81.265 L 316.600 82.244 316.481 84.943 C 316.356 87.789,317.124 89.152,318.871 89.187 C 319.636 89.202,320.867 90.629,321.563 92.310 C 321.863 93.036,322.535 93.633,323.406 93.948 C 324.907 94.490,326.400 96.112,326.400 97.200 C 326.400 97.623,327.139 98.269,328.300 98.861 C 329.699 99.575,330.457 100.314,331.176 101.662 C 331.861 102.948,332.542 103.635,333.464 103.969 C 334.852 104.471,336.400 106.116,336.400 107.090 C 336.400 107.825,337.984 109.169,338.871 109.187 C 339.651 109.202,340.870 110.637,341.600 112.399 L 342.110 113.631 345.323 113.515 C 348.502 113.401,348.540 113.388,348.920 112.200 C 349.448 110.550,350.342 109.618,352.050 108.934 C 353.100 108.513,353.700 107.910,354.225 106.745 C 354.767 105.543,355.433 104.893,356.868 104.166 C 358.253 103.464,358.859 102.888,359.046 102.097 C 359.362 100.760,360.711 99.205,361.570 99.187 C 364.193 99.134,364.456 92.000,361.835 92.000 C 360.622 92.000,359.024 90.475,358.384 88.707 C 357.982 87.594,357.535 87.175,356.329 86.777 C 354.509 86.176,354.173 85.823,353.461 83.758 C 353.073 82.634,352.664 82.162,351.991 82.063 C 350.425 81.833,349.291 80.829,348.537 79.007 C 347.956 77.600,347.529 77.173,346.303 76.768 C 344.510 76.176,344.171 75.818,343.461 73.758 C 343.073 72.634,342.664 72.162,341.991 72.063 C 340.426 71.833,339.291 70.829,338.539 69.009 C 337.924 67.523,337.618 67.241,336.410 67.047 C 335.635 66.923,334.441 66.709,333.758 66.572 C 332.601 66.340,332.430 66.463,331.259 68.366 " stroke="none" fill="#f3fbfb" fill-rule="evenodd"></path><path id="path2" d="M320.562 28.062 C 320.396 28.330,320.451 28.416,320.693 28.266 C 321.211 27.946,322.102 28.953,321.697 29.401 C 321.533 29.581,321.637 29.592,321.926 29.424 C 322.345 29.182,322.312 28.966,321.764 28.360 C 320.956 27.467,320.933 27.461,320.562 28.062 M342.400 38.151 C 342.070 38.470,341.154 39.331,340.364 40.065 C 339.575 40.799,338.851 41.635,338.757 41.922 C 338.659 42.219,337.569 42.582,336.230 42.763 C 333.178 43.178,333.012 43.456,332.452 49.095 C 331.730 56.371,332.205 59.168,334.170 59.209 C 334.406 59.214,335.050 59.570,335.600 60.000 C 336.150 60.430,336.892 60.786,337.249 60.791 C 338.115 60.803,341.986 63.666,341.994 64.300 C 341.997 64.575,342.186 64.800,342.413 64.800 C 343.548 64.800,368.661 90.720,369.394 92.648 C 369.802 93.722,370.555 95.391,371.068 96.359 C 372.068 98.248,371.901 100.205,370.559 102.298 C 370.243 102.792,370.064 103.637,370.161 104.175 C 370.259 104.713,370.127 105.232,369.869 105.327 C 369.530 105.452,369.555 105.652,369.959 106.050 C 370.433 106.517,370.469 106.515,370.197 106.038 C 369.987 105.670,370.030 105.571,370.321 105.751 C 370.565 105.902,370.664 106.290,370.540 106.613 C 370.416 106.936,370.514 107.200,370.757 107.200 C 371.001 107.200,371.200 107.416,371.200 107.680 C 371.200 108.053,371.093 108.053,370.720 107.680 C 370.173 107.133,369.445 107.026,369.762 107.539 C 369.877 107.725,369.433 108.393,368.775 109.023 C 368.118 109.654,367.668 110.401,367.777 110.685 C 367.886 110.968,367.801 111.200,367.587 111.200 C 367.374 111.200,367.200 111.470,367.200 111.800 C 367.200 112.130,367.001 112.400,366.757 112.400 C 366.514 112.400,366.422 112.679,366.553 113.021 C 366.684 113.362,366.624 113.538,366.420 113.412 C 366.216 113.286,365.885 113.477,365.684 113.835 C 365.352 114.429,365.297 114.430,365.074 113.849 C 364.935 113.487,365.018 113.251,365.264 113.305 C 365.504 113.357,365.784 113.169,365.888 112.887 C 366.176 112.099,365.150 112.489,364.121 113.558 C 363.001 114.724,362.898 115.197,363.978 114.220 C 364.727 113.542,364.754 113.548,364.691 114.390 C 364.654 114.872,364.299 115.440,363.901 115.653 C 363.503 115.866,363.256 116.167,363.351 116.321 C 363.447 116.476,362.237 116.550,360.663 116.485 C 357.327 116.348,354.966 117.286,355.045 118.716 C 355.077 119.293,354.911 119.464,354.479 119.298 C 354.078 119.144,353.969 119.225,354.160 119.535 C 354.331 119.812,354.152 120.114,353.725 120.269 C 352.548 120.698,350.393 122.948,350.875 123.247 C 351.135 123.407,350.889 123.785,350.256 124.200 C 349.679 124.578,349.296 125.031,349.404 125.206 C 349.512 125.382,349.241 125.431,348.801 125.316 C 348.292 125.183,347.994 125.306,347.984 125.653 C 347.976 125.954,347.726 125.641,347.428 124.959 C 346.851 123.633,345.709 123.200,342.791 123.200 L 341.281 123.200 341.000 125.996 C 340.846 127.534,340.722 128.929,340.726 129.096 C 340.738 129.690,339.911 130.372,338.135 131.231 C 337.145 131.710,336.243 132.394,336.130 132.751 C 335.344 135.238,335.074 135.587,333.756 135.835 C 333.010 135.975,332.400 136.236,332.400 136.416 C 332.400 136.596,332.107 137.035,331.750 137.393 C 330.927 138.215,330.944 141.018,331.781 142.623 C 332.119 143.270,332.396 144.565,332.398 145.500 L 332.400 147.200 334.024 147.200 C 334.917 147.200,335.549 147.040,335.428 146.845 C 335.307 146.650,335.522 146.515,335.904 146.545 C 336.338 146.579,336.579 146.338,336.545 145.904 C 336.515 145.522,336.650 145.307,336.845 145.428 C 337.040 145.549,337.200 144.917,337.200 144.024 C 337.200 142.608,337.315 142.399,338.100 142.394 C 338.801 142.389,338.872 142.307,338.421 142.021 C 338.040 141.781,338.389 141.728,339.437 141.869 C 341.496 142.145,342.201 141.398,341.863 139.297 C 341.698 138.269,341.743 137.988,342.005 138.400 C 342.313 138.883,342.389 138.825,342.394 138.100 C 342.399 137.315,342.608 137.200,344.024 137.200 C 344.917 137.200,345.549 137.040,345.428 136.845 C 345.307 136.650,345.522 136.515,345.904 136.545 C 346.338 136.579,346.579 136.338,346.545 135.904 C 346.515 135.522,346.650 135.307,346.845 135.428 C 347.040 135.549,347.200 134.917,347.200 134.024 L 347.200 132.400 348.824 132.400 C 349.717 132.400,350.356 132.252,350.243 132.070 C 350.131 131.889,350.436 131.754,350.920 131.770 C 351.577 131.793,351.793 131.577,351.770 130.920 C 351.754 130.436,351.889 130.131,352.070 130.243 C 352.252 130.356,352.400 129.807,352.400 129.024 C 352.400 127.867,352.550 127.600,353.200 127.600 C 353.640 127.600,354.000 127.417,354.000 127.192 C 354.000 126.957,354.424 126.891,355.005 127.037 C 356.417 127.392,357.327 126.537,357.044 125.122 C 356.921 124.505,356.995 124.000,357.210 124.000 C 357.425 124.000,357.600 123.640,357.600 123.200 C 357.600 122.550,357.867 122.400,359.024 122.400 C 359.807 122.400,360.356 122.252,360.243 122.070 C 360.131 121.889,360.436 121.754,360.920 121.770 C 361.577 121.793,361.793 121.577,361.770 120.920 C 361.754 120.436,361.889 120.131,362.070 120.243 C 362.252 120.356,362.400 119.717,362.400 118.824 L 362.400 117.200 364.024 117.200 C 364.992 117.200,365.549 117.040,365.403 116.805 C 365.265 116.582,365.417 116.508,365.749 116.636 C 366.525 116.933,367.200 115.633,367.200 113.840 C 367.200 112.448,367.228 112.424,369.193 112.163 C 371.489 111.859,371.801 111.570,372.127 109.450 C 372.423 107.530,372.369 107.579,374.467 107.312 C 376.612 107.040,377.198 106.598,377.205 105.251 C 377.217 103.066,377.619 102.431,379.144 102.188 C 381.398 101.830,381.776 101.465,382.123 99.307 L 382.445 97.299 384.257 97.095 C 386.627 96.828,386.774 96.636,387.272 93.155 C 387.745 89.851,389.195 87.749,391.158 87.521 L 392.200 87.400 392.200 68.361 C 392.200 47.219,392.340 48.262,389.441 47.827 L 387.708 47.567 387.471 45.574 C 387.160 42.945,387.152 42.936,384.647 42.623 L 382.484 42.353 382.222 40.609 C 382.078 39.650,381.672 38.626,381.319 38.333 C 380.320 37.503,343.249 37.329,342.400 38.151 M304.344 87.141 C 303.724 87.865,303.768 87.927,305.248 88.416 C 307.097 89.026,307.321 88.896,306.670 87.590 C 306.046 86.338,305.175 86.170,304.344 87.141 M369.939 109.865 C 369.486 110.347,368.853 110.642,368.533 110.519 C 368.077 110.344,368.190 110.045,369.051 109.147 C 369.843 108.320,370.237 108.137,370.457 108.493 C 370.637 108.784,370.423 109.349,369.939 109.865 M369.192 109.410 C 368.419 110.341,368.971 110.517,369.798 109.602 C 370.197 109.161,370.338 108.800,370.111 108.800 C 369.884 108.800,369.470 109.074,369.192 109.410 M361.892 115.570 C 361.740 116.152,361.851 116.283,362.345 116.108 C 363.538 115.686,363.691 115.503,363.143 115.156 C 362.337 114.646,362.114 114.719,361.892 115.570 M212.240 177.093 C 211.879 177.455,211.952 179.123,212.340 179.363 C 212.527 179.478,213.048 179.149,213.498 178.631 L 214.316 177.690 213.398 177.272 C 212.893 177.042,212.372 176.961,212.240 177.093 M206.957 182.569 C 206.372 184.093,207.542 184.824,208.736 183.681 C 209.462 182.986,209.711 182.495,209.433 182.306 C 208.700 181.808,207.187 181.969,206.957 182.569 M202.267 187.067 C 200.977 188.356,202.415 189.848,203.753 188.608 C 204.766 187.669,204.777 187.616,204.030 187.216 C 203.129 186.734,202.641 186.693,202.267 187.067 M196.800 192.999 C 196.580 193.578,196.400 194.282,196.400 194.564 C 196.400 195.419,195.079 196.330,193.638 196.469 C 192.046 196.622,191.480 197.820,190.748 202.591 C 190.258 205.780,189.900 206.400,188.545 206.400 C 187.192 206.400,185.600 210.594,185.600 214.156 C 185.600 217.033,185.220 217.853,183.710 218.239 C 181.860 218.711,180.854 221.035,180.822 224.910 C 180.801 227.490,180.747 227.640,179.700 228.037 C 177.788 228.761,176.803 230.062,175.954 232.982 C 174.841 236.811,174.367 238.000,173.951 238.000 C 173.758 238.000,173.600 238.251,173.600 238.557 C 173.600 238.864,173.339 239.215,173.019 239.337 C 172.036 239.715,170.800 242.809,170.800 244.893 C 170.800 247.202,169.534 249.834,167.668 251.404 C 166.876 252.071,166.400 252.841,166.400 253.457 C 166.400 256.223,165.098 260.220,163.733 261.643 C 162.033 263.415,160.990 267.344,161.928 268.442 C 162.771 269.429,166.953 268.232,168.708 266.501 C 169.428 265.792,170.418 265.127,170.908 265.024 C 171.399 264.922,173.294 264.531,175.121 264.156 C 177.092 263.752,178.637 263.209,178.921 262.820 C 180.171 261.108,182.288 260.018,185.222 259.574 C 188.422 259.090,190.639 258.250,191.600 257.157 C 192.433 256.211,195.212 254.800,196.243 254.800 C 198.358 254.800,202.000 252.424,202.000 251.044 C 202.000 250.066,202.947 249.700,206.088 249.462 C 209.859 249.177,212.181 248.125,212.584 246.520 C 212.946 245.079,213.417 244.812,215.600 244.811 C 217.722 244.810,223.224 243.604,223.805 243.012 C 224.027 242.785,224.410 242.146,224.655 241.591 C 225.002 240.805,225.665 240.426,227.650 239.880 C 233.279 238.331,233.302 238.319,233.768 236.703 C 234.363 234.642,235.365 233.600,236.753 233.600 C 238.885 233.600,238.799 230.966,236.656 230.612 C 232.886 229.989,232.293 230.107,231.909 231.552 C 231.365 233.602,230.496 234.681,229.178 234.944 C 227.068 235.366,223.761 237.095,223.082 238.131 C 222.592 238.879,221.829 239.260,220.111 239.614 C 215.261 240.614,212.013 241.839,212.005 242.671 C 211.995 243.650,209.919 244.800,208.161 244.800 C 207.209 244.800,205.478 245.142,204.315 245.561 C 200.165 247.053,197.958 246.961,196.272 245.224 C 195.469 244.396,194.231 243.553,193.522 243.349 C 192.778 243.136,192.140 242.645,192.016 242.189 C 191.608 240.695,190.596 239.563,188.919 238.721 C 187.723 238.121,187.069 237.457,186.655 236.422 C 186.335 235.621,185.492 234.398,184.782 233.704 C 183.353 232.307,183.309 230.368,184.622 226.644 C 184.942 225.740,185.319 223.686,185.462 222.080 C 185.711 219.268,185.768 219.141,186.999 218.626 C 188.538 217.983,190.131 214.411,190.553 210.658 C 190.878 207.777,191.289 206.965,192.589 206.638 C 193.145 206.499,193.600 206.123,193.600 205.802 C 193.600 205.482,193.959 204.630,194.399 203.910 C 194.838 203.189,195.204 202.240,195.212 201.800 C 195.232 200.692,196.322 199.529,198.117 198.698 L 199.635 197.996 199.517 195.098 C 199.384 191.795,197.740 190.526,196.800 192.999 M251.461 216.665 C 250.642 217.624,250.492 218.000,250.928 218.000 C 251.262 218.000,251.774 218.088,252.067 218.196 C 253.192 218.609,253.694 217.817,253.126 216.525 L 252.600 215.330 251.461 216.665 M246.527 221.603 L 245.254 222.741 246.500 223.175 C 248.092 223.730,248.900 222.140,247.843 220.533 C 247.819 220.496,247.227 220.978,246.527 221.603 M222.062 222.575 C 222.138 222.942,222.380 223.233,222.600 223.221 C 223.194 223.190,223.085 222.295,222.462 222.087 C 222.125 221.975,221.975 222.158,222.062 222.575 M241.614 226.585 C 240.585 227.680,240.597 227.779,241.800 228.141 C 243.183 228.557,243.775 227.885,243.122 226.639 L 242.564 225.574 241.614 226.585 " stroke="none" fill="#d18978" fill-rule="evenodd"></path><path id="path3" d="M103.600 7.980 C 103.600 8.211,103.394 8.355,103.143 8.300 C 102.604 8.182,102.517 9.668,102.449 20.100 L 102.400 27.600 90.300 27.610 C 83.645 27.615,77.524 27.776,76.698 27.968 C 75.823 28.171,75.103 28.167,74.974 27.958 C 74.852 27.761,74.561 27.600,74.327 27.600 C 74.062 27.600,74.092 27.829,74.408 28.209 C 74.835 28.724,74.801 28.775,74.191 28.541 C 73.694 28.350,73.559 28.410,73.758 28.732 C 73.917 28.989,73.882 29.200,73.680 29.200 C 73.479 29.200,73.151 29.965,72.951 30.900 C 72.612 32.491,72.500 32.603,71.194 32.649 C 70.427 32.676,69.580 32.721,69.310 32.749 C 68.886 32.793,67.569 34.822,67.592 35.396 C 67.696 38.010,66.513 38.958,64.521 37.857 C 63.895 37.511,63.868 37.542,64.321 38.096 C 64.763 38.636,64.720 38.772,64.040 38.987 C 63.503 39.158,63.115 39.795,62.864 40.921 C 62.372 43.121,62.277 367.600,62.768 367.600 C 62.965 367.600,63.031 367.961,62.915 368.402 C 62.800 368.843,62.929 369.473,63.202 369.802 C 63.475 370.131,63.558 370.400,63.387 370.400 C 63.216 370.400,63.419 370.791,63.838 371.269 C 64.257 371.747,64.347 371.989,64.038 371.807 C 63.672 371.591,63.570 371.628,63.746 371.912 C 63.902 372.165,64.765 372.277,65.807 372.180 C 67.793 371.993,67.611 371.669,67.756 375.650 C 67.780 376.320,67.976 376.630,68.297 376.507 C 68.574 376.401,68.800 376.497,68.800 376.720 C 68.800 376.943,69.700 377.249,70.800 377.400 C 71.900 377.551,72.823 377.838,72.850 378.038 C 72.877 378.237,72.922 378.565,72.950 378.767 C 72.978 378.968,73.123 379.256,73.272 379.406 C 73.422 379.556,73.455 379.912,73.345 380.199 C 73.235 380.485,73.341 380.840,73.579 380.987 C 73.818 381.135,73.911 381.421,73.786 381.623 C 73.660 381.826,73.865 381.873,74.245 381.727 C 74.707 381.550,74.838 381.615,74.646 381.926 C 74.430 382.276,104.477 382.389,197.601 382.390 C 284.104 382.392,320.765 382.266,320.581 381.969 C 320.426 381.718,320.620 381.598,321.060 381.673 C 321.591 381.764,321.764 381.591,321.673 381.060 C 321.604 380.653,321.703 380.417,321.895 380.535 C 322.087 380.654,322.208 380.042,322.164 379.175 C 322.076 377.455,321.779 377.611,325.500 377.433 C 326.371 377.392,327.423 376.399,327.443 375.600 C 327.532 371.967,327.476 372.077,329.175 372.164 C 330.042 372.208,330.654 372.087,330.535 371.895 C 330.417 371.703,330.653 371.604,331.060 371.673 C 331.591 371.764,331.764 371.591,331.673 371.060 C 331.599 370.626,331.719 370.426,331.963 370.577 C 332.739 371.057,332.556 156.748,331.780 155.783 C 331.383 155.290,331.078 155.168,330.957 155.454 C 330.828 155.757,330.303 155.804,329.372 155.594 C 327.786 155.236,327.403 155.723,325.956 159.928 C 325.223 162.059,325.200 165.069,325.200 260.275 C 325.200 366.683,325.342 359.918,323.061 362.043 C 322.495 362.569,321.331 364.331,320.473 365.957 C 318.991 368.767,318.768 368.991,315.972 370.468 C 314.354 371.323,312.512 372.552,311.878 373.200 C 311.245 373.848,310.069 374.517,309.264 374.689 C 307.007 375.169,85.629 375.081,85.285 374.600 C 85.128 374.380,84.754 374.148,84.454 374.085 C 84.153 374.021,83.416 373.481,82.815 372.885 C 82.214 372.288,80.579 371.190,79.181 370.445 C 76.491 369.011,75.235 367.834,75.213 366.727 C 75.206 366.357,74.220 364.832,73.022 363.338 C 71.064 360.895,70.812 360.360,70.522 358.011 C 70.094 354.542,70.105 54.868,70.533 51.864 C 70.783 50.111,71.183 49.163,72.133 48.064 C 73.890 46.033,75.200 44.118,75.200 43.579 C 75.200 42.358,77.071 40.801,80.600 39.086 C 81.260 38.766,82.239 38.027,82.777 37.444 C 84.151 35.954,86.946 35.248,92.678 34.941 L 97.630 34.676 98.962 36.131 L 100.295 37.586 100.478 45.220 L 100.660 52.855 101.712 53.759 C 103.772 55.528,107.295 56.254,108.927 55.245 C 110.823 54.073,110.835 54.020,111.058 45.400 C 111.206 39.726,111.416 37.420,111.889 36.300 L 112.521 34.800 135.132 34.800 L 157.743 34.800 159.019 36.193 L 160.295 37.586 160.478 45.220 L 160.660 52.855 161.712 53.759 C 163.772 55.528,167.295 56.254,168.927 55.245 C 170.823 54.073,170.835 54.020,171.058 45.400 C 171.206 39.726,171.416 37.420,171.889 36.300 L 172.521 34.800 195.132 34.800 L 217.743 34.800 219.019 36.193 L 220.295 37.586 220.478 45.220 L 220.660 52.855 221.712 53.759 C 223.772 55.528,227.295 56.254,228.927 55.245 C 230.823 54.073,230.835 54.020,231.058 45.400 C 231.206 39.726,231.416 37.420,231.889 36.300 L 232.521 34.800 255.132 34.800 L 277.743 34.800 279.019 36.193 L 280.295 37.586 280.478 45.220 L 280.660 52.855 281.712 53.759 C 283.772 55.528,287.295 56.254,288.927 55.245 C 290.823 54.073,290.835 54.020,291.058 45.400 C 291.206 39.726,291.416 37.420,291.889 36.300 L 292.521 34.800 297.477 34.800 C 307.341 34.800,310.641 35.498,313.287 38.144 C 313.593 38.450,315.003 39.311,316.420 40.058 C 318.831 41.328,319.111 41.626,320.787 44.707 C 321.772 46.518,322.736 48.000,322.929 48.000 C 323.623 48.000,326.221 49.392,327.196 50.286 C 327.744 50.789,328.399 51.200,328.653 51.200 C 329.522 51.200,329.604 52.468,328.801 53.489 C 328.278 54.155,328.000 55.113,328.000 56.254 C 328.000 57.539,327.842 58.000,327.400 58.000 C 326.767 58.000,325.200 59.372,325.200 59.925 C 325.200 61.103,323.095 64.411,322.204 64.635 C 321.593 64.788,320.698 65.663,319.913 66.874 C 319.134 68.076,318.116 69.075,317.337 69.400 C 316.629 69.696,315.496 70.703,314.819 71.637 C 314.142 72.571,313.006 73.684,312.294 74.110 C 310.520 75.171,309.200 76.434,309.200 77.070 C 309.200 77.756,307.756 79.200,307.070 79.200 C 305.973 79.200,303.742 82.329,303.532 84.159 C 303.419 85.153,303.618 85.432,304.931 86.114 C 305.773 86.552,306.632 87.357,306.839 87.903 C 307.046 88.448,308.023 89.656,309.008 90.587 C 309.994 91.518,310.800 92.455,310.800 92.670 C 310.800 93.113,312.498 94.800,312.944 94.800 C 313.331 94.800,315.196 96.675,315.213 97.082 C 315.233 97.545,316.670 99.198,317.064 99.211 C 317.544 99.226,320.800 102.266,320.800 102.699 C 320.800 103.195,322.550 104.800,323.090 104.800 C 323.331 104.800,323.998 105.385,324.570 106.100 C 325.143 106.815,325.789 107.617,326.006 107.883 C 326.223 108.149,326.400 108.554,326.400 108.783 C 326.400 109.012,326.632 109.200,326.916 109.200 C 327.549 109.200,330.800 112.091,330.800 112.654 C 330.800 113.146,332.501 114.795,333.026 114.812 C 333.232 114.819,333.850 115.380,334.400 116.061 C 334.950 116.741,336.200 118.040,337.178 118.949 C 338.156 119.857,339.539 121.185,340.251 121.900 C 341.212 122.864,341.902 123.200,342.923 123.200 C 345.706 123.200,346.859 123.650,347.428 124.959 C 347.726 125.641,347.976 125.954,347.984 125.653 C 347.994 125.306,348.292 125.183,348.801 125.316 C 349.241 125.431,349.512 125.382,349.404 125.206 C 349.296 125.031,349.679 124.578,350.256 124.200 C 350.889 123.785,351.135 123.407,350.875 123.247 C 350.393 122.948,352.548 120.698,353.725 120.269 C 354.152 120.114,354.331 119.812,354.160 119.535 C 353.969 119.225,354.078 119.144,354.479 119.298 C 354.911 119.464,355.077 119.293,355.045 118.716 C 354.966 117.286,357.327 116.348,360.663 116.485 C 362.237 116.550,363.447 116.476,363.351 116.321 C 363.256 116.167,363.503 115.866,363.901 115.653 C 364.299 115.440,364.654 114.872,364.691 114.390 C 364.754 113.548,364.727 113.542,363.978 114.220 C 362.898 115.197,363.001 114.724,364.121 113.558 C 365.150 112.489,366.176 112.099,365.888 112.887 C 365.784 113.169,365.504 113.357,365.264 113.305 C 365.018 113.251,364.935 113.487,365.074 113.849 C 365.297 114.430,365.352 114.429,365.684 113.835 C 365.885 113.477,366.216 113.286,366.420 113.412 C 366.624 113.538,366.684 113.362,366.553 113.021 C 366.422 112.679,366.514 112.400,366.757 112.400 C 367.001 112.400,367.200 112.130,367.200 111.800 C 367.200 111.470,367.374 111.200,367.587 111.200 C 367.801 111.200,367.886 110.968,367.777 110.685 C 367.668 110.401,368.118 109.654,368.775 109.023 C 369.433 108.393,369.877 107.725,369.762 107.539 C 369.445 107.026,370.173 107.133,370.720 107.680 C 371.093 108.053,371.200 108.053,371.200 107.680 C 371.200 107.416,371.001 107.200,370.757 107.200 C 370.514 107.200,370.416 106.936,370.540 106.613 C 370.664 106.290,370.565 105.902,370.321 105.751 C 370.030 105.571,369.987 105.670,370.197 106.038 C 370.469 106.515,370.433 106.517,369.959 106.050 C 369.555 105.652,369.530 105.452,369.869 105.327 C 370.127 105.232,370.259 104.713,370.161 104.175 C 370.064 103.637,370.243 102.792,370.559 102.298 C 371.901 100.205,372.068 98.248,371.068 96.359 C 370.555 95.391,369.802 93.722,369.394 92.648 C 368.661 90.720,343.548 64.800,342.413 64.800 C 342.186 64.800,341.997 64.575,341.994 64.300 C 341.986 63.666,338.115 60.803,337.249 60.791 C 336.892 60.786,336.150 60.430,335.600 60.000 C 335.050 59.570,334.406 59.214,334.170 59.209 C 332.344 59.171,332.071 57.763,332.235 49.237 C 332.337 43.945,332.246 40.897,331.977 40.572 C 331.688 40.224,331.695 39.989,332.000 39.800 C 332.562 39.453,331.755 38.400,330.927 38.400 C 330.603 38.400,330.474 38.204,330.631 37.949 C 330.829 37.629,330.709 37.611,330.217 37.887 C 328.308 38.955,327.446 37.958,327.460 34.700 C 327.462 34.315,327.295 34.000,327.089 34.000 C 326.883 34.000,326.814 33.739,326.937 33.420 C 327.083 33.040,326.967 32.915,326.599 33.056 C 326.291 33.174,325.816 33.134,325.545 32.966 C 325.273 32.798,324.410 32.647,323.626 32.630 C 322.216 32.600,322.199 32.579,322.141 30.800 C 322.109 29.810,322.042 28.910,321.994 28.800 C 321.945 28.690,321.931 28.452,321.963 28.270 C 321.994 28.089,321.848 28.047,321.638 28.177 C 321.427 28.307,321.163 28.263,321.049 28.080 C 320.936 27.897,314.489 27.699,306.722 27.641 C 298.956 27.583,292.562 27.495,292.513 27.447 C 292.465 27.398,292.408 23.105,292.386 17.906 C 292.358 11.151,292.211 8.345,291.873 8.074 C 291.197 7.532,283.600 7.442,283.600 7.977 C 283.600 8.209,283.394 8.355,283.143 8.300 C 282.604 8.182,282.517 9.668,282.449 20.100 L 282.400 27.600 257.400 27.600 L 232.400 27.600 232.350 18.400 C 232.296 8.383,232.314 8.798,231.901 8.149 C 231.521 7.554,223.600 7.392,223.600 7.980 C 223.600 8.211,223.394 8.355,223.143 8.300 C 222.604 8.182,222.517 9.668,222.449 20.100 L 222.400 27.600 197.400 27.600 L 172.400 27.600 172.350 18.400 C 172.296 8.383,172.314 8.798,171.901 8.149 C 171.521 7.554,163.600 7.392,163.600 7.980 C 163.600 8.211,163.394 8.355,163.143 8.300 C 162.604 8.182,162.517 9.668,162.449 20.100 L 162.400 27.600 137.400 27.600 L 112.400 27.600 112.350 18.400 C 112.296 8.383,112.314 8.798,111.901 8.149 C 111.521 7.554,103.600 7.392,103.600 7.980 M336.410 67.047 C 337.618 67.241,337.924 67.523,338.539 69.009 C 339.291 70.829,340.426 71.833,341.991 72.063 C 342.664 72.162,343.073 72.634,343.461 73.758 C 344.171 75.818,344.510 76.176,346.303 76.768 C 347.529 77.173,347.956 77.600,348.537 79.007 C 349.291 80.829,350.425 81.833,351.991 82.063 C 352.664 82.162,353.073 82.634,353.461 83.758 C 354.173 85.823,354.509 86.176,356.329 86.777 C 357.535 87.175,357.982 87.594,358.384 88.707 C 359.024 90.475,360.622 92.000,361.835 92.000 C 364.456 92.000,364.193 99.134,361.570 99.187 C 360.711 99.205,359.362 100.760,359.046 102.097 C 358.859 102.888,358.253 103.464,356.868 104.166 C 355.433 104.893,354.767 105.543,354.225 106.745 C 353.700 107.910,353.100 108.513,352.050 108.934 C 350.342 109.618,349.448 110.550,348.920 112.200 C 348.540 113.388,348.502 113.401,345.323 113.515 L 342.110 113.631 341.600 112.399 C 340.870 110.637,339.651 109.202,338.871 109.187 C 337.984 109.169,336.400 107.825,336.400 107.090 C 336.400 106.116,334.852 104.471,333.464 103.969 C 332.542 103.635,331.861 102.948,331.176 101.662 C 330.457 100.314,329.699 99.575,328.300 98.861 C 327.139 98.269,326.400 97.623,326.400 97.200 C 326.400 96.112,324.907 94.490,323.406 93.948 C 322.535 93.633,321.863 93.036,321.563 92.310 C 320.867 90.629,319.636 89.202,318.871 89.187 C 317.124 89.152,316.356 87.789,316.481 84.943 L 316.600 82.244 318.506 81.265 C 320.021 80.487,320.596 79.886,321.304 78.343 C 321.903 77.037,322.439 76.400,322.938 76.400 C 323.909 76.400,326.400 73.896,326.400 72.920 C 326.400 72.415,327.005 71.866,328.201 71.285 C 329.489 70.659,330.359 69.828,331.259 68.366 C 332.430 66.463,332.601 66.340,333.758 66.572 C 334.441 66.709,335.635 66.923,336.410 67.047 M369.051 109.147 C 368.190 110.045,368.077 110.344,368.533 110.519 C 369.288 110.809,370.864 109.150,370.457 108.493 C 370.237 108.137,369.843 108.320,369.051 109.147 M369.798 109.602 C 369.398 110.044,368.985 110.318,368.879 110.212 C 368.610 109.943,369.608 108.800,370.111 108.800 C 370.338 108.800,370.197 109.161,369.798 109.602 M363.143 115.156 C 363.691 115.503,363.538 115.686,362.345 116.108 C 361.851 116.283,361.740 116.152,361.892 115.570 C 362.114 114.719,362.337 114.646,363.143 115.156 M326.275 146.322 C 325.101 147.548,324.889 148.595,325.750 148.926 C 326.074 149.050,326.482 148.738,326.742 148.168 C 327.193 147.178,327.560 147.079,330.700 147.094 C 331.743 147.099,332.400 146.920,332.400 146.631 C 332.400 144.803,327.946 144.578,326.275 146.322 M189.376 199.443 C 188.702 201.540,187.788 203.285,187.200 203.600 C 186.246 204.110,183.594 211.441,183.599 213.553 C 183.599 213.857,182.970 214.700,182.200 215.426 C 181.430 216.152,180.800 216.919,180.800 217.129 C 180.800 217.340,180.444 218.297,180.009 219.256 C 179.574 220.215,179.214 221.592,179.209 222.316 C 179.195 224.439,176.960 228.000,175.641 228.000 C 175.177 228.000,174.057 230.397,173.740 232.068 C 173.414 233.785,173.056 234.463,171.705 235.919 C 171.097 236.575,170.373 237.395,170.096 237.743 C 169.576 238.395,168.437 243.293,168.106 246.300 C 167.982 247.427,167.725 248.000,167.343 248.000 C 165.611 248.000,163.989 251.210,163.634 255.338 C 163.415 257.883,163.203 258.627,162.599 258.969 C 158.366 261.370,157.530 269.127,161.318 270.853 C 163.978 272.065,170.686 270.429,170.778 268.546 C 170.823 267.621,172.840 266.802,175.679 266.558 C 179.088 266.264,181.850 264.935,182.235 263.404 C 182.434 262.609,182.808 262.392,184.339 262.180 C 190.886 261.273,195.200 259.689,195.200 258.191 C 195.200 257.588,197.579 256.400,198.787 256.400 C 200.092 256.400,201.232 255.686,203.000 253.761 C 204.668 251.944,207.100 250.807,209.350 250.791 C 211.076 250.779,213.829 249.458,215.491 247.843 C 216.513 246.851,217.375 246.425,218.741 246.241 C 221.888 245.815,225.740 244.417,227.000 243.243 C 227.660 242.629,229.010 241.720,230.000 241.224 C 230.990 240.728,231.350 240.427,230.800 240.556 C 230.250 240.684,229.413 240.792,228.940 240.795 C 228.466 240.798,226.984 241.623,225.645 242.630 C 223.674 244.111,222.755 244.524,220.809 244.799 C 219.487 244.986,217.837 245.422,217.142 245.769 C 216.446 246.116,215.710 246.400,215.506 246.400 C 215.302 246.400,214.384 247.006,213.467 247.746 C 212.550 248.487,211.350 249.200,210.800 249.331 C 207.455 250.128,203.778 251.262,203.437 251.603 C 203.219 251.821,202.645 252.000,202.163 252.000 C 201.680 252.000,201.187 252.257,201.067 252.571 C 200.805 253.252,197.455 254.800,196.243 254.800 C 195.212 254.800,192.433 256.211,191.600 257.157 C 190.639 258.250,188.422 259.090,185.222 259.574 C 182.288 260.018,180.171 261.108,178.921 262.820 C 178.637 263.209,177.092 263.752,175.121 264.156 C 173.294 264.531,171.399 264.922,170.908 265.024 C 170.418 265.127,169.428 265.792,168.708 266.501 C 166.953 268.232,162.771 269.429,161.928 268.442 C 160.990 267.344,162.033 263.415,163.733 261.643 C 165.098 260.220,166.400 256.223,166.400 253.457 C 166.400 252.841,166.876 252.071,167.668 251.404 C 169.534 249.834,170.800 247.202,170.800 244.893 C 170.800 242.809,172.036 239.715,173.019 239.337 C 173.339 239.215,173.600 238.864,173.600 238.557 C 173.600 238.251,173.758 238.000,173.951 238.000 C 174.382 238.000,174.940 236.600,175.844 233.252 C 176.223 231.851,176.928 230.231,177.413 229.652 C 177.897 229.073,178.867 226.710,179.569 224.400 C 181.047 219.533,181.917 217.367,182.633 216.773 C 183.488 216.063,185.200 212.478,185.200 211.397 C 185.200 209.798,186.608 206.198,187.889 204.525 C 188.984 203.095,190.272 199.339,189.822 198.889 C 189.710 198.777,189.509 199.026,189.376 199.443 " stroke="none" fill="#a4b4cb" fill-rule="evenodd"></path><path id="path4" d="M301.133 84.919 C 300.182 85.644,299.341 86.561,299.266 86.955 C 299.088 87.877,297.877 89.088,296.955 89.266 C 296.561 89.341,295.643 90.213,294.916 91.202 C 293.299 93.402,293.402 93.299,291.202 94.916 C 290.213 95.643,289.341 96.561,289.266 96.955 C 289.088 97.877,287.877 99.088,286.955 99.266 C 286.561 99.341,285.643 100.213,284.916 101.202 C 283.299 103.402,283.402 103.299,281.202 104.916 C 280.213 105.643,279.341 106.561,279.266 106.955 C 279.088 107.877,277.877 109.088,276.955 109.266 C 276.561 109.341,275.643 110.213,274.916 111.202 C 273.299 113.402,273.402 113.299,271.202 114.916 C 270.213 115.643,269.339 116.589,269.261 117.019 C 269.078 118.014,268.035 119.200,267.343 119.200 C 266.543 119.200,265.253 120.421,264.329 122.053 C 263.876 122.852,262.852 123.876,262.053 124.329 C 260.421 125.253,259.200 126.543,259.200 127.343 C 259.200 127.977,257.931 129.200,257.273 129.200 C 256.538 129.200,255.223 130.474,254.329 132.053 C 253.876 132.852,252.852 133.876,252.053 134.329 C 250.421 135.253,249.200 136.543,249.200 137.343 C 249.200 137.977,247.931 139.200,247.273 139.200 C 246.538 139.200,245.223 140.474,244.329 142.053 C 243.876 142.852,242.852 143.876,242.053 144.329 C 240.421 145.253,239.200 146.543,239.200 147.343 C 239.200 147.977,237.931 149.200,237.273 149.200 C 236.538 149.200,235.223 150.474,234.329 152.053 C 233.876 152.852,232.852 153.876,232.053 154.329 C 230.421 155.253,229.200 156.543,229.200 157.343 C 229.200 157.977,227.931 159.200,227.273 159.200 C 226.538 159.200,225.223 160.474,224.329 162.053 C 223.876 162.852,222.852 163.876,222.053 164.329 C 220.421 165.253,219.200 166.543,219.200 167.343 C 219.200 167.977,217.931 169.200,217.273 169.200 C 216.545 169.200,215.226 170.468,214.357 172.003 C 213.815 172.959,212.984 173.645,211.749 174.156 C 210.398 174.715,209.767 175.274,209.268 176.353 C 208.405 178.222,207.933 178.701,206.630 179.028 C 205.580 179.292,203.600 181.693,203.600 182.703 C 203.600 182.987,203.126 183.400,202.548 183.620 C 200.747 184.304,199.300 185.547,199.025 186.644 C 198.692 187.969,197.979 188.690,196.678 189.016 C 195.691 189.264,193.600 191.769,193.600 192.703 C 193.600 192.956,192.965 193.464,192.189 193.832 C 190.673 194.551,189.200 196.151,189.200 197.079 C 189.200 198.543,187.762 201.937,186.607 203.200 C 185.214 204.722,183.583 209.160,183.626 211.308 C 183.647 212.311,183.834 211.973,184.466 209.800 C 185.598 205.903,186.432 204.011,187.200 203.600 C 187.561 203.407,188.180 202.473,188.575 201.524 C 190.280 197.434,191.981 194.824,192.970 194.782 C 193.206 194.771,193.707 194.366,194.083 193.882 C 196.142 191.225,196.973 190.343,197.979 189.749 C 198.591 189.387,199.371 188.618,199.713 188.040 C 200.560 186.605,202.270 184.800,202.781 184.800 C 203.324 184.800,204.800 183.324,204.800 182.781 C 204.800 182.289,206.558 180.600,207.994 179.713 C 208.547 179.371,209.721 178.182,210.603 177.071 C 211.575 175.844,212.676 174.920,213.403 174.719 C 214.131 174.519,215.033 173.760,215.704 172.783 C 216.312 171.900,217.264 171.004,217.820 170.792 C 218.966 170.357,220.800 168.522,220.800 167.811 C 220.800 167.235,222.227 165.949,223.656 165.238 C 224.237 164.949,224.949 164.237,225.238 163.656 C 225.962 162.201,227.238 160.800,227.839 160.800 C 228.488 160.800,230.800 158.488,230.800 157.839 C 230.800 157.238,232.201 155.962,233.656 155.238 C 234.237 154.949,234.949 154.237,235.238 153.656 C 235.962 152.201,237.238 150.800,237.839 150.800 C 238.488 150.800,240.800 148.488,240.800 147.839 C 240.800 147.238,242.201 145.962,243.656 145.238 C 244.237 144.949,244.949 144.237,245.238 143.656 C 245.962 142.201,247.238 140.800,247.839 140.800 C 248.488 140.800,250.800 138.488,250.800 137.839 C 250.800 137.238,252.201 135.962,253.656 135.238 C 254.237 134.949,254.949 134.237,255.238 133.656 C 255.962 132.201,257.238 130.800,257.839 130.800 C 258.488 130.800,260.800 128.488,260.800 127.839 C 260.800 127.238,262.201 125.962,263.656 125.238 C 264.237 124.949,264.949 124.237,265.238 123.656 C 265.962 122.201,267.238 120.800,267.839 120.800 C 268.488 120.800,270.800 118.488,270.800 117.839 C 270.800 117.219,272.482 115.600,273.126 115.600 C 273.387 115.600,273.600 115.420,273.600 115.200 C 273.600 114.980,273.870 114.800,274.200 114.800 C 274.530 114.800,274.800 114.571,274.800 114.291 C 274.800 113.582,277.151 110.800,277.751 110.800 C 278.338 110.800,280.800 108.338,280.800 107.751 C 280.800 107.200,282.530 105.600,283.126 105.600 C 283.387 105.600,283.600 105.420,283.600 105.200 C 283.600 104.980,283.870 104.800,284.200 104.800 C 284.530 104.800,284.800 104.530,284.800 104.200 C 284.800 103.870,284.980 103.600,285.200 103.600 C 285.420 103.600,285.600 103.361,285.600 103.070 C 285.600 102.466,287.249 100.800,287.847 100.800 C 288.364 100.800,290.800 98.284,290.800 97.751 C 290.800 97.200,292.530 95.600,293.126 95.600 C 293.387 95.600,293.600 95.420,293.600 95.200 C 293.600 94.980,293.874 94.800,294.209 94.800 C 294.543 94.800,295.028 94.305,295.285 93.700 C 295.867 92.332,297.191 90.800,297.791 90.800 C 298.381 90.800,300.800 88.300,300.800 87.691 C 300.800 87.431,301.430 86.646,302.200 85.945 C 304.748 83.627,303.898 82.810,301.133 84.919 M306.278 92.149 C 305.465 92.962,304.800 93.796,304.800 94.003 C 304.800 94.210,304.252 94.663,303.581 95.010 C 302.006 95.825,300.800 96.864,300.800 97.408 C 300.800 97.960,297.902 100.800,297.339 100.800 C 297.104 100.800,296.572 101.288,296.156 101.884 C 295.189 103.272,293.272 105.189,291.884 106.156 C 291.288 106.572,290.800 107.120,290.800 107.375 C 290.800 107.937,287.928 110.800,287.364 110.800 C 287.143 110.800,286.521 111.357,285.981 112.038 C 284.739 113.605,283.605 114.739,282.038 115.981 C 281.357 116.521,280.800 117.159,280.800 117.400 C 280.800 117.958,277.907 120.800,277.339 120.800 C 277.104 120.800,276.572 121.288,276.156 121.884 C 275.189 123.272,273.272 125.189,271.884 126.156 C 271.288 126.572,270.800 127.120,270.800 127.375 C 270.800 127.951,267.921 130.800,267.339 130.800 C 267.104 130.800,266.572 131.288,266.156 131.884 C 265.189 133.272,263.272 135.189,261.884 136.156 C 261.288 136.572,260.800 137.120,260.800 137.375 C 260.800 137.932,257.930 140.800,257.372 140.800 C 256.870 140.800,255.809 142.035,255.050 143.503 C 254.725 144.131,254.011 144.849,253.461 145.099 C 252.150 145.697,250.800 146.868,250.800 147.408 C 250.800 147.941,247.911 150.800,247.372 150.800 C 246.870 150.800,245.809 152.035,245.050 153.503 C 244.725 154.131,244.011 154.849,243.461 155.099 C 242.150 155.697,240.800 156.868,240.800 157.408 C 240.800 157.941,237.911 160.800,237.372 160.800 C 236.870 160.800,235.809 162.035,235.050 163.503 C 234.725 164.131,234.011 164.849,233.461 165.099 C 232.150 165.697,230.800 166.868,230.800 167.408 C 230.800 167.941,227.911 170.800,227.372 170.800 C 226.870 170.800,225.809 172.035,225.050 173.503 C 224.725 174.131,224.011 174.849,223.461 175.099 C 222.107 175.716,220.800 176.873,220.800 177.455 C 220.800 177.718,220.144 178.533,219.342 179.266 C 216.289 182.060,214.800 183.651,214.800 184.119 C 214.800 184.386,214.262 184.843,213.604 185.134 C 212.947 185.425,212.002 186.202,211.504 186.860 C 210.343 188.396,208.389 190.348,206.828 191.530 C 204.131 193.574,205.220 198.352,209.379 202.721 C 210.572 203.974,212.145 205.649,212.874 206.442 C 214.202 207.888,216.301 209.200,217.285 209.200 C 218.001 209.200,220.806 211.678,220.803 212.308 C 220.794 213.909,228.881 222.724,231.269 223.717 C 234.056 224.876,237.698 224.862,238.600 223.688 C 239.652 222.321,242.376 219.606,243.706 218.600 C 244.287 218.160,244.771 217.583,244.782 217.318 C 244.805 216.693,246.693 214.805,247.318 214.782 C 247.583 214.771,248.107 214.366,248.483 213.882 C 250.627 211.115,251.487 210.229,252.886 209.346 C 253.740 208.807,254.546 208.059,254.678 207.683 C 255.024 206.697,256.860 204.800,257.469 204.800 C 257.754 204.800,258.666 203.933,259.494 202.874 C 260.322 201.815,261.776 200.361,262.725 199.643 C 263.673 198.925,264.554 198.037,264.683 197.669 C 265.020 196.707,266.861 194.800,267.452 194.800 C 267.729 194.800,268.550 194.061,269.277 193.158 C 270.005 192.255,270.954 191.220,271.386 190.858 C 271.818 190.496,272.871 189.480,273.727 188.600 C 274.583 187.720,275.738 186.550,276.294 186.000 C 276.851 185.450,278.099 184.190,279.069 183.200 C 281.218 181.006,281.006 181.218,283.200 179.069 C 284.190 178.099,285.514 176.787,286.142 176.153 C 286.770 175.519,287.940 174.364,288.742 173.586 C 289.544 172.808,290.491 171.818,290.846 171.386 C 291.201 170.954,292.319 169.970,293.331 169.200 C 294.342 168.430,295.185 167.530,295.203 167.200 C 295.222 166.870,295.716 166.240,296.303 165.800 C 296.889 165.360,298.148 164.190,299.100 163.200 C 301.130 161.091,300.909 161.313,303.200 159.069 C 305.553 156.764,306.921 155.394,309.062 153.200 C 310.983 151.231,311.386 150.850,313.664 148.853 C 314.509 148.113,315.200 147.289,315.200 147.023 C 315.200 146.420,316.889 144.800,317.518 144.800 C 317.775 144.800,318.652 143.906,319.467 142.814 C 320.283 141.722,321.691 140.296,322.597 139.645 C 323.504 138.994,324.766 137.638,325.402 136.631 C 326.065 135.583,326.862 134.800,327.267 134.800 C 327.656 134.800,328.721 133.811,329.635 132.600 C 330.549 131.390,331.409 130.400,331.548 130.399 C 331.978 130.399,335.199 127.403,335.213 126.990 C 335.234 126.386,336.672 124.800,337.200 124.800 C 338.912 124.800,339.537 122.314,338.100 121.222 C 335.610 119.331,335.236 118.978,335.218 118.500 C 335.195 117.875,332.066 114.800,331.452 114.799 C 331.203 114.799,330.505 114.015,329.900 113.057 C 329.295 112.100,327.990 110.804,327.000 110.178 C 326.010 109.552,325.200 108.806,325.200 108.520 C 325.200 107.893,322.092 104.803,321.452 104.793 C 321.203 104.789,320.414 103.889,319.697 102.793 C 318.980 101.697,318.152 100.800,317.855 100.800 C 317.123 100.800,315.531 99.250,314.800 97.824 C 314.470 97.181,313.706 96.373,313.103 96.028 C 312.499 95.682,312.004 95.265,312.003 95.100 C 312.001 94.935,311.730 94.800,311.400 94.800 C 311.070 94.800,310.800 94.665,310.799 94.500 C 310.798 94.335,310.113 93.406,309.276 92.436 L 307.755 90.672 306.278 92.149 M324.036 148.851 C 323.527 149.263,322.882 149.600,322.602 149.600 C 322.137 149.600,320.659 151.140,318.600 153.770 C 318.160 154.332,317.551 154.794,317.247 154.796 C 316.624 154.801,315.334 156.157,315.011 157.148 C 314.894 157.506,314.324 158.160,313.745 158.600 C 312.397 159.625,309.632 162.387,308.600 163.742 C 308.160 164.319,307.567 164.794,307.282 164.796 C 306.610 164.801,304.801 166.610,304.796 167.282 C 304.794 167.567,304.319 168.160,303.742 168.600 C 302.393 169.629,299.629 172.393,298.600 173.742 C 298.160 174.319,297.551 174.794,297.247 174.796 C 296.624 174.801,295.334 176.157,295.011 177.148 C 294.894 177.506,294.324 178.160,293.745 178.600 C 292.397 179.625,289.632 182.387,288.600 183.742 C 288.160 184.319,287.567 184.794,287.282 184.796 C 286.610 184.801,284.801 186.610,284.796 187.282 C 284.794 187.567,284.319 188.160,283.742 188.600 C 282.334 189.673,279.588 192.400,278.600 193.706 C 278.160 194.287,277.516 194.771,277.170 194.782 C 276.441 194.803,274.800 196.426,274.800 197.126 C 274.800 197.748,273.705 198.822,271.985 199.887 C 271.223 200.359,270.260 201.322,269.845 202.028 C 268.879 203.668,267.746 204.800,267.070 204.800 C 266.426 204.800,264.800 206.466,264.800 207.126 C 264.800 207.694,263.786 208.741,262.304 209.702 C 261.709 210.088,260.600 211.377,259.839 212.566 C 259.078 213.755,258.103 214.840,257.673 214.977 C 256.938 215.210,254.800 217.990,254.800 218.712 C 254.800 218.893,254.006 219.542,253.036 220.156 C 252.065 220.769,250.769 222.065,250.156 223.036 C 249.542 224.006,248.806 224.800,248.520 224.800 C 247.844 224.800,244.800 227.844,244.800 228.520 C 244.800 228.806,244.006 229.542,243.036 230.156 C 242.065 230.769,240.794 232.026,240.210 232.949 C 239.627 233.872,238.600 234.870,237.929 235.167 C 237.257 235.465,236.148 236.501,235.465 237.470 C 234.500 238.840,233.503 239.583,230.994 240.803 C 229.218 241.667,227.347 242.818,226.836 243.362 C 225.870 244.390,221.829 245.819,218.661 246.254 C 217.378 246.430,216.485 246.878,215.487 247.846 C 214.724 248.588,213.312 249.552,212.350 249.988 C 210.914 250.640,210.779 250.784,211.600 250.790 C 212.802 250.798,215.062 249.483,216.091 248.176 C 216.862 247.195,218.995 246.406,220.885 246.402 C 222.611 246.399,226.375 244.817,227.952 243.433 C 228.757 242.728,230.467 241.842,231.800 241.441 C 234.127 240.741,236.400 239.133,236.400 238.187 C 236.400 237.541,237.735 236.400,238.490 236.400 C 239.197 236.400,241.405 234.045,241.767 232.905 C 241.897 232.494,242.786 231.778,243.742 231.313 C 245.037 230.684,245.687 230.027,246.297 228.730 C 246.916 227.413,247.518 226.814,248.781 226.256 C 250.023 225.709,250.661 225.084,251.278 223.814 C 251.877 222.582,252.576 221.879,253.793 221.288 C 255.065 220.670,255.693 220.015,256.348 218.621 C 256.826 217.605,257.618 216.606,258.108 216.401 C 259.539 215.802,260.738 214.588,261.024 213.446 C 261.300 212.346,262.932 210.800,263.816 210.800 C 264.096 210.800,264.888 209.945,265.576 208.900 C 266.264 207.855,267.637 206.448,268.628 205.772 C 269.619 205.097,270.738 203.927,271.115 203.172 C 271.492 202.418,272.399 201.501,273.131 201.135 C 274.507 200.448,276.400 198.240,276.400 197.322 C 276.400 197.035,276.553 196.800,276.740 196.800 C 277.612 196.800,280.498 194.408,281.113 193.176 C 281.497 192.408,282.406 191.498,283.172 191.115 C 283.927 190.738,285.097 189.621,285.772 188.632 C 286.448 187.644,287.771 186.321,288.713 185.694 C 289.655 185.066,290.735 183.933,291.113 183.176 C 291.513 182.375,292.441 181.466,293.334 181.000 C 294.190 180.553,295.292 179.494,295.828 178.602 C 296.356 177.723,297.608 176.450,298.609 175.774 C 299.611 175.098,300.738 173.927,301.115 173.172 C 301.498 172.406,302.408 171.497,303.176 171.113 C 303.933 170.735,305.066 169.655,305.694 168.713 C 306.321 167.771,307.644 166.448,308.632 165.772 C 309.621 165.097,310.738 163.927,311.115 163.172 C 311.525 162.350,312.403 161.506,313.303 161.065 C 314.222 160.616,315.193 159.671,315.801 158.634 C 316.373 157.659,317.646 156.387,318.798 155.640 C 319.899 154.927,320.800 154.110,320.800 153.825 C 320.800 152.821,322.450 151.227,323.740 150.985 C 325.350 150.683,326.286 149.429,325.493 148.636 C 325.049 148.192,324.806 148.228,324.036 148.851 M182.200 214.173 C 180.761 215.579,179.205 218.614,179.212 220.000 C 179.217 220.820,179.360 220.686,180.009 219.256 C 180.444 218.297,180.800 217.340,180.800 217.129 C 180.800 216.919,181.445 216.138,182.233 215.394 C 183.022 214.651,183.607 213.808,183.533 213.521 C 183.446 213.179,182.988 213.403,182.200 214.173 M178.854 222.676 C 178.825 223.158,178.620 223.664,178.400 223.800 C 178.180 223.936,178.000 224.324,178.000 224.663 C 178.000 225.002,177.435 225.807,176.745 226.451 C 175.362 227.743,175.404 228.492,176.794 227.329 C 178.005 226.315,179.281 223.712,179.078 222.669 L 178.909 221.800 178.854 222.676 M206.219 251.435 C 204.558 252.043,202.095 254.229,202.554 254.687 C 202.701 254.834,203.382 254.341,204.068 253.590 C 205.010 252.558,205.958 252.058,207.957 251.536 C 210.054 250.989,210.311 250.847,209.200 250.851 C 208.430 250.854,207.088 251.117,206.219 251.435 " stroke="none" fill="#fceca4" fill-rule="evenodd"></path></g></svg>