<?xml version="1.0" standalone="no"?>
<!DOCTYPE svg PUBLIC "-//W3C//DTD SVG 20010904//EN"
 "http://www.w3.org/TR/2001/REC-SVG-20010904/DTD/svg10.dtd">
<svg version="1.0" xmlns="http://www.w3.org/2000/svg"
 width="80.000000pt" height="80.000000pt" viewBox="0 0 80.000000 80.000000"
 preserveAspectRatio="xMidYMid meet">
<metadata>
Created by potrace 1.16, written by Peter Selinger 2001-2019
</metadata>
<g transform="translate(0.000000,80.000000) scale(0.100000,-0.100000)"
fill="#000000" stroke="none">
<path d="M390 740 c0 -27 -3 -30 -30 -30 -20 0 -30 5 -30 15 0 8 -7 15 -15 15
-8 0 -15 -9 -15 -20 0 -12 -9 -24 -22 -29 -19 -7 -25 -4 -36 15 -7 13 -17 24
-22 24 -13 0 -13 -30 -1 -50 14 -21 -24 -46 -45 -29 -21 17 -42 -4 -25 -25 17
-21 -8 -59 -29 -45 -20 12 -50 12 -50 -1 0 -5 11 -15 24 -22 19 -11 22 -17 15
-35 -5 -14 -17 -23 -29 -23 -11 0 -20 -7 -20 -15 0 -8 7 -15 15 -15 10 0 15
-10 15 -30 0 -27 -3 -30 -30 -30 -16 0 -30 -4 -30 -10 0 -5 14 -10 30 -10 27
0 30 -3 30 -30 0 -20 -5 -30 -15 -30 -8 0 -15 -7 -15 -15 0 -8 9 -15 20 -15
12 0 24 -9 29 -22 7 -19 4 -25 -15 -36 -13 -7 -24 -17 -24 -22 0 -13 30 -13
50 -1 21 14 47 -24 30 -44 -17 -21 -3 -38 20 -25 14 7 25 7 39 -2 18 -11 18
-14 6 -39 -14 -25 -11 -39 6 -39 5 0 14 11 21 24 11 19 17 22 36 15 13 -5 22
-17 22 -29 0 -11 7 -20 15 -20 8 0 15 7 15 15 0 10 10 15 30 15 27 0 30 -3 30
-30 0 -16 5 -30 10 -30 6 0 10 14 10 30 0 27 3 30 30 30 20 0 30 -5 30 -15 0
-8 7 -15 15 -15 8 0 15 9 15 20 0 12 9 24 23 29 18 7 24 4 35 -15 7 -13 17
-24 22 -24 13 0 13 30 1 50 -14 21 22 44 48 30 24 -13 38 4 21 25 -17 20 9 58
30 44 20 -12 50 -12 50 1 0 5 -11 15 -24 22 -19 11 -22 17 -15 36 5 13 17 22
29 22 11 0 20 7 20 15 0 8 -7 15 -15 15 -10 0 -15 10 -15 30 0 27 3 30 30 30
17 0 30 5 30 10 0 6 -13 10 -30 10 -27 0 -30 3 -30 30 0 20 5 30 15 30 8 0 15
7 15 15 0 8 -9 15 -20 15 -12 0 -24 9 -29 23 -7 18 -4 24 15 35 13 7 24 17 24
22 0 13 -30 13 -50 1 -18 -12 -48 25 -32 41 18 18 3 39 -19 27 -26 -13 -62 10
-48 31 12 20 12 50 -1 50 -5 0 -15 -11 -22 -24 -11 -19 -17 -22 -35 -15 -14 5
-23 17 -23 29 0 11 -7 20 -15 20 -8 0 -15 -7 -15 -15 0 -10 -10 -15 -30 -15
-27 0 -30 3 -30 30 0 17 -4 30 -10 30 -5 0 -10 -13 -10 -30z m125 -84 c221
-102 221 -410 0 -512 -101 -48 -234 -24 -314 57 -108 108 -108 290 0 398 80
81 213 105 314 57z"/>
</g>
</svg>
