<svg xmlns="http://www.w3.org/2000/svg" xmlns:svgjs="http://svgjs.com/svgjs" xmlns:xlink="http://www.w3.org/1999/xlink"><svg xmlns="http://www.w3.org/2000/svg" enable-background="new 0 0 512.007 512.007" viewBox="0 0 512.007 512.007"><path fill="#fff" d="M314.788 114.106c1.067.444 2.176.657 3.26.657 3.354 0 6.528-1.988 7.893-5.274l13.056-31.548c1.8-4.352-.265-9.344-4.625-11.145-4.352-1.801-9.344.265-11.145 4.625l-13.056 31.539C308.37 107.313 310.436 112.305 314.788 114.106zM256.001 119.473c-75.281 0-136.533 61.252-136.533 136.533 0 75.281 61.252 136.533 136.533 136.533 75.29 0 136.533-61.252 136.533-136.533C392.535 180.725 331.291 119.473 256.001 119.473zM256.001 375.473c-65.869 0-119.467-53.589-119.467-119.467 0-65.877 53.598-119.467 119.467-119.467 65.877 0 119.467 53.589 119.467 119.467C375.468 321.884 321.879 375.473 256.001 375.473zM340.934 51.044c1.058.435 2.159.648 3.243.648 3.354 0 6.537-1.997 7.893-5.299l14.225-34.611c1.792-4.361-.29-9.344-4.651-11.136-4.352-1.801-9.344.29-11.136 4.651l-14.225 34.611C334.5 44.269 336.573 49.252 340.934 51.044zM159.95 46.394c1.365 3.294 4.54 5.291 7.902 5.291 1.075 0 2.176-.205 3.243-.648 4.352-1.792 6.434-6.776 4.642-11.136L161.495 5.297c-1.792-4.361-6.767-6.451-11.136-4.651-4.361 1.801-6.434 6.784-4.651 11.136L159.95 46.394zM256.001 102.407c4.719 0 8.533-3.823 8.533-8.533V34.14c0-4.71-3.814-8.533-8.533-8.533-4.71 0-8.533 3.823-8.533 8.533v59.733C247.468 98.584 251.291 102.407 256.001 102.407zM173.015 77.95l13.065 31.539c1.365 3.285 4.54 5.265 7.885 5.265 1.092 0 2.202-.213 3.268-.649 4.352-1.809 6.417-6.801 4.617-11.153l-13.073-31.539c-1.809-4.352-6.793-6.417-11.145-4.617C173.271 68.606 171.206 73.589 173.015 77.95zM418.135 247.473c-4.71 0-8.533 3.823-8.533 8.533 0 4.71 3.823 8.533 8.533 8.533h68.267c4.719 0 8.533-3.823 8.533-8.533 0-4.71-3.814-8.533-8.533-8.533H418.135zM138.335 148.64c1.673 1.673 3.849 2.5 6.033 2.5s4.369-.828 6.033-2.5c3.336-3.328 3.336-8.73 0-12.066l-48.265-48.265c-3.337-3.336-8.73-3.336-12.066 0-3.337 3.328-3.337 8.73 0 12.066L138.335 148.64zM468.865 176.373c1.084 0 2.176-.205 3.243-.64l34.611-14.234c4.352-1.792 6.434-6.784 4.642-11.136-1.784-4.361-6.776-6.451-11.136-4.651l-34.611 14.234c-4.352 1.792-6.434 6.784-4.642 11.136C462.329 174.385 465.512 176.373 468.865 176.373zM397.911 197.229c1.365 3.294 4.54 5.274 7.885 5.274 1.092 0 2.202-.213 3.268-.657l31.531-13.065c4.352-1.801 6.426-6.793 4.617-11.153-1.809-4.352-6.81-6.417-11.145-4.617l-31.539 13.073C398.175 187.885 396.11 192.877 397.911 197.229zM367.634 148.64c1.673 1.673 3.849 2.5 6.033 2.5 2.185 0 4.369-.828 6.033-2.5l42.24-42.231c3.328-3.337 3.328-8.738 0-12.066-3.337-3.337-8.738-3.337-12.066 0l-42.24 42.231C364.307 139.911 364.307 145.312 367.634 148.64z" class="color000 svgShape"/><path fill="#fff" d="M311.733 170.084c-3.959-2.569-9.242-1.451-11.81 2.5s-1.442 9.242 2.509 11.802c12.604 8.192 22.861 19.584 29.67 32.947 1.51 2.961 4.506 4.659 7.612 4.659 1.297 0 2.62-.299 3.866-.93 4.198-2.142 5.862-7.279 3.729-11.477C339.142 193.56 326.837 179.898 311.733 170.084zM352.036 465.577c-1.818-4.344-6.818-6.383-11.162-4.582-4.352 1.818-6.4 6.818-4.591 11.17l14.242 34.065c1.374 3.268 4.548 5.248 7.885 5.248 1.092 0 2.21-.213 3.285-.666 4.343-1.818 6.4-6.818 4.582-11.162L352.036 465.577zM379.701 365.865c-3.328-3.328-8.73-3.328-12.066 0-3.328 3.337-3.328 8.738 0 12.075l48.273 48.264c1.664 1.673 3.849 2.5 6.033 2.5 2.176 0 4.361-.828 6.033-2.5 3.328-3.328 3.328-8.73 0-12.066L379.701 365.865zM338.997 434.072l-13.065-31.556c-1.809-4.343-6.792-6.426-11.153-4.616-4.352 1.809-6.417 6.801-4.617 11.153l13.065 31.548c1.365 3.285 4.54 5.274 7.893 5.274 1.084 0 2.185-.213 3.26-.657C338.732 443.416 340.797 438.424 338.997 434.072zM197.241 397.907c-4.361-1.818-9.353.265-11.153 4.617l-13.073 31.548c-1.809 4.352.256 9.344 4.617 11.145 1.067.444 2.176.657 3.26.657 3.354 0 6.528-1.98 7.885-5.274l13.082-31.548C203.658 404.7 201.593 399.708 197.241 397.907zM256.001 409.607c-4.71 0-8.533 3.823-8.533 8.533v68.267c0 4.71 3.823 8.533 8.533 8.533 4.719 0 8.533-3.823 8.533-8.533V418.14C264.535 413.43 260.72 409.607 256.001 409.607zM440.594 323.232l-31.539-13.065c-4.361-1.801-9.344.256-11.153 4.617-1.801 4.352.265 9.344 4.617 11.145l31.548 13.073c1.067.444 2.167.657 3.26.657 3.345 0 6.519-1.988 7.885-5.274C447.02 330.033 444.947 325.041 440.594 323.232zM506.711 350.513l-34.603-14.217c-4.352-1.801-9.344.29-11.136 4.651-1.792 4.352.29 9.335 4.651 11.127l34.603 14.225c1.058.435 2.159.64 3.243.64 3.354 0 6.537-1.988 7.893-5.291C513.153 357.289 511.071 352.305 506.711 350.513zM171.069 460.969c-4.352-1.792-9.344.29-11.136 4.642l-14.225 34.62c-1.783 4.361.29 9.344 4.651 11.136 1.058.435 2.159.64 3.243.64 3.354 0 6.536-1.988 7.893-5.291l14.225-34.611C177.512 467.744 175.43 462.761 171.069 460.969zM5.292 161.5l34.62 14.225c1.058.435 2.159.64 3.234.64 3.362 0 6.545-1.988 7.902-5.291 1.792-4.361-.29-9.344-4.651-11.136l-34.62-14.225c-4.343-1.801-9.344.29-11.136 4.651C-1.142 154.724.932 159.708 5.292 161.5zM25.601 247.473c-4.71 0-8.533 3.823-8.533 8.533 0 4.71 3.823 8.533 8.533 8.533h68.267c4.719 0 8.533-3.823 8.533-8.533 0-4.71-3.814-8.533-8.533-8.533H25.601zM71.408 188.781l31.548 13.065c1.067.444 2.176.657 3.26.657 3.354 0 6.528-1.988 7.885-5.274 1.809-4.352-.256-9.344-4.617-11.145l-31.539-13.073c-4.369-1.801-9.344.273-11.153 4.617C64.991 181.988 67.056 186.98 71.408 188.781zM39.903 336.28L5.292 350.513c-4.361 1.792-6.434 6.784-4.651 11.136 1.357 3.302 4.54 5.291 7.902 5.291 1.075 0 2.176-.205 3.243-.64l34.603-14.242c4.361-1.792 6.443-6.775 4.651-11.136C49.247 336.57 44.272 334.479 39.903 336.28zM114.109 314.793c-1.801-4.36-6.801-6.426-11.145-4.625l-31.548 13.065c-4.352 1.801-6.426 6.792-4.625 11.145 1.365 3.285 4.54 5.274 7.893 5.274 1.084 0 2.193-.213 3.26-.648l31.548-13.065C113.845 324.137 115.918 319.145 114.109 314.793zM150.401 365.865c-3.328-3.328-8.73-3.328-12.066 0l-48.265 48.273c-3.337 3.337-3.337 8.738 0 12.066 1.664 1.673 3.849 2.5 6.033 2.5 2.185 0 4.369-.828 6.033-2.5l48.265-48.264C153.738 374.603 153.738 369.201 150.401 365.865z" class="color000 svgShape"/></svg></svg>